<svg xmlns="http://www.w3.org/2000/svg" viewBox="0 0 377.05 400.29"><defs><style>.cls-1{fill:#fff;}.cls-2{fill:#e51e23;}</style></defs><g id="Layer_2" data-name="Layer 2"><g id="Layer_1-2" data-name="Layer 1"><path class="cls-1" d="M33.63,34.19C18.26,41.64,0,58.1,0,94.1a125.83,125.83,0,0,0,1.32,17.74l.36,2.78c2.22,16.53,9,66.91,34.29,119.84C61.42,287.65,85,321.55,123,359.62c.31.29,28.73,28.39,42.81,35.47a52.07,52.07,0,0,0,22.66,5.2h0a51.84,51.84,0,0,0,22.69-5.2c14.08-7.08,42.53-35.18,42.81-35.47,38.06-38.07,61.63-72,87.06-125.16,25.29-52.93,32-103.31,34.31-119.88l.38-2.82c6.7-47.84-13.88-68.59-32.3-77.57C296.9,11.5,244.78,0,188.51,0S80.14,11.5,33.63,34.19"/><path class="cls-2" d="M256.7,173.73c-100.17,15.66-148.62,42.15-172.24,67.08-18.11,19.13-11.79,33.82-6.95,42.28,15.5,24.27,32.61,45.05,54.82,67.23,7.1,7.1,29.65,28.14,39.38,33a38.78,38.78,0,0,0,33.61,0c9.75-4.88,32.29-25.92,39.41-33,36.88-36.87,59.76-69.81,84.5-121.53a360.51,360.51,0,0,0,23.15-64.19l.07-.31c-21.88.45-53.14,2.77-95.75,9.44M73.12,82.5h-2l-5.94,27.83h2a8.64,8.64,0,0,0,7.11-3.21c1.8-2.13,3-5.74,4-10.69s1.41-8.59.53-10.66-2.48-3.27-5.75-3.27M337.7,46C288.53,22,236.35,13.12,188.51,13.12S88.51,22,39.36,46C21.92,54.49,13.12,70.65,13.12,94.1a115.71,115.71,0,0,0,1.2,15.9l.41,2.84A405.65,405.65,0,0,0,31.5,187.9c13-16.74,64.92-31,157-35.84,86.83-4.58,148.85-4.28,167.81-4.05,3.43-16,5.11-28.45,6-35.17l.39-2.84c4.52-32.18-3.91-53.71-25-64M99.17,97c-3.3,15.4-15.34,24.94-31,24.94H43l10.82-51h24c20.4,0,24.59,10.92,21.39,26.05m23.63,26.3c-15.41,0-22.91-6.17-20.3-18.44l7.2-33.91h20.21l-7,33.05c-.86,4,.72,5.59,2.83,5.59s4.36-1.57,5.22-5.59l7-33h20.2L151,104.84c-2.62,12.27-12.76,18.44-28.17,18.44m55.38,0c-17.87,0-23.82-10.9-20.4-27.08,2.89-15.89,14.64-26.63,31.89-26.63,12.86,0,22.62,5.25,19.52,20.23H190.66c1-5.79-.91-6.92-3.4-6.92-5.23,0-6.83,5.34-8.61,13.55C177,104.18,176.18,110,181.28,110c2.64,0,4.71-1.54,6.16-6.9h18.92c-3,14-15.54,20.19-28.18,20.19m61.17-1.36-.23-8.2H224.48l-3.77,8.2H201.35l27.14-51h26.23l5.56,51Zm47.26,0H266.4l8-37.29H261.77l2.91-13.7H310l-2.94,13.7H294.54Zm36.58,0H303l10.83-51H334Zm-93-20.61h8.63l0-19.25h-.1Z"/></g></g></svg>