<svg xmlns="http://www.w3.org/2000/svg" viewBox="0 0 871.56 637.54"><defs><style>.cls-1{fill:#004e9c;}</style></defs><g id="Layer_2" data-name="Layer 2"><g id="Layer_1-2" data-name="Layer 1"><g id="g18"><g id="g24"><path id="path26" class="cls-1" d="M854.44,493.73a.84.84,0,0,0,.84.84h1.51c2.31,0,4.51-.22,4.51-2.67s-1.85-2.51-4.23-2.51h-1.79a.83.83,0,0,0-.84.84Zm8.91-2a4,4,0,0,1-1.76,3.35,3.87,3.87,0,0,1-.49.26.84.84,0,0,0-.24,1.38c.75.67,1.4,1.84,2.53,4.39a.84.84,0,0,1-.76,1.18h-.33a.82.82,0,0,1-.76-.49c-2.21-4.85-2.89-5.74-6.26-5.74h0a.84.84,0,0,0-.84.84v4.55a.84.84,0,0,1-.84.84h-.11a.83.83,0,0,1-.84-.84V488.79a.83.83,0,0,1,.84-.84h5c4.82,0,4.82,3.4,4.82,3.79M858.12,483a12,12,0,1,0,11.79,12,11.86,11.86,0,0,0-11.79-12m0,25.68A13.69,13.69,0,1,1,871.56,495a13.57,13.57,0,0,1-13.44,13.71"/></g><g id="g28"><path id="path30" class="cls-1" d="M424.05,386.07c-42.07,0-56.12,0-77-5.85l-.05,0c-7.21-2.56-20.14-6.25-29.49-21.33-17.26-30.14-17.26-86.78-17.26-114s0-75.4,17.26-105.18c9.34-15.41,22.28-19.1,29.48-21.68l.07,0c20.85-5.49,34.89-5.49,77-5.49,41,0,55.05,0,76.27,5.49l.08,0c7.21,2.58,19.79,6.27,28.38,21.68,18.73,29.78,18.73,81.26,18.73,108.47,0,26.48,0,80.54-18.73,110.68-8.59,15.08-21.18,18.77-28.39,21.33l-.06,0c-21.23,5.85-35.26,5.85-76.28,5.85m0-121.77c35.28,0,34.75,0,34.75,11.77v73.27a.85.85,0,0,0,.85.84h48a.85.85,0,0,0,.84-.84V145.77a.85.85,0,0,0-.84-.84h-48a.85.85,0,0,0-.85.84v60.79c0,12.12.53,12.12-34.75,12.12-36,0-35.83,0-35.83-12.12V145.77a.84.84,0,0,0-.84-.84H340.13a.85.85,0,0,0-.84.84V349.34a.85.85,0,0,0,.84.84h47.25a.84.84,0,0,0,.84-.84V276.07c0-11.77-.16-11.77,35.83-11.77m-.17,174.36c35.91.13,101.24,3.38,138.41-38.62,18.05-20.45,22.65-33.81,31.65-62.85,7.89-25.37,6.82-40.45,9.36-68.39v-.05c.7-20.58,1.78-45.2-5.07-80.49-7.45-38.77-13.12-60-30.17-77.9a.84.84,0,0,1,.19-1.31c22.37-12.53,25.6-47.18,22.48-71.11a.87.87,0,0,0-.46-.65c-2.7-1.35-18.56-9.25-29.43-13.4-11.32-4.29-28.74-8.89-33.16-10a.84.84,0,0,0-1,.82c.07,19.13,1.88,47.24-11.85,56.64l-.07,0c-14.41,8.43-49.62,0-55.38-18.43-1.79-5.45-3.54-24.2-.11-47.75a.85.85,0,0,0-.65-.95A161.2,161.2,0,0,0,423.34,0a140.19,140.19,0,0,0-34.56,4.24.84.84,0,0,0-.65.9c2.43,23.57,1.73,42.34-.07,47.79-6.1,18.41-41,26.87-55,18.41C317.84,62,321,33.82,321.12,14.67a.83.83,0,0,0-1-.82C315.45,15,296.61,20,284.42,24.63,274.1,28.57,259,36,256.39,37.3a.83.83,0,0,0-.46.63c-3.43,23.94.1,58.59,22.5,71.12a.84.84,0,0,1,.19,1.31c-17,17.85-22.74,39.13-30.18,77.9-6.1,35.3-4.69,59.93-4.31,80.51,1.8,28,1.8,43,8.27,68.39,0,0,0,0,0,.06,9.35,29,14.85,42.64,33.79,62.82,38.49,41,101.57,38.64,137.67,38.62"/></g><g id="g32"><path id="path34" class="cls-1" d="M206.45,507.91H183.89a.85.85,0,0,0-.84.84v59c0,16.95-6.67,25.51-20.31,25.51a16.23,16.23,0,0,1-12-5c-3.49-3.57-5.19-9.49-5.19-18.14V508.75a.84.84,0,0,0-.84-.84H122.34a.84.84,0,0,0-.84.84v63.43c0,14.17,3.15,24.26,9.68,30.94,6.22,6.35,13.84,9.47,26.44,9.47,8.12,0,17.95-5.25,24.26-12.39a.85.85,0,0,1,1.47.57v8.28a.84.84,0,0,0,.84.85h22.26a.84.84,0,0,0,.84-.85V508.75A.84.84,0,0,0,206.45,507.91Z"/></g><g id="g36"><path id="path38" class="cls-1" d="M584.44,535.39c0-7.62-2.47-14-7.37-19.06-6.94-7.06-16.86-11.2-31.15-11.14s-37.93,3-41.18,29.9a.84.84,0,0,0,.84.95H528a.83.83,0,0,0,.84-.82c.36-12.07,15.81-11,15.81-11A21,21,0,0,1,558,528.66c2.1,1.74,3.48,4.37,3.66,8.65.26,6.93-3,10.24-25.68,12.51-17.48,1.7-38.34,6.58-38.34,32.24,0,8.19,2.71,15.32,7.91,20.61,6.24,6.4,15.72,9.92,26.63,9.92,13.67,0,21.85-3.28,29-10.82a.84.84,0,0,1,1.44.47l.86,6.92a.85.85,0,0,0,.84.74H586a.85.85,0,0,0,.84-.85v-2.62a.82.82,0,0,0-.25-.59c-2.67-2.68-2.14-11.76-2.11-12.28V535.39Zm-62.79,45.87c-.65-7.66,3.7-13.17,15.17-15.17,3-.6,6.06-.9,9-1.36a35.91,35.91,0,0,0,13.25-4.32.84.84,0,0,1,1.27.72V575.2c0,12.65-12.33,17.4-21.32,17.25s-16.78-3.53-17.41-11.19"/></g><g id="g40"><path id="path42" class="cls-1" d="M404.42,636.64l0-127.8a.85.85,0,0,0-.84-.85l-21.29-.08a.85.85,0,0,0-.85.84v9.39a.84.84,0,0,1-1.5.52c-6.06-7.72-14.32-13.46-26.11-13.46-28.8,0-45.54,20.77-45.54,54.25,0,17.08,5.29,32.25,14.5,41.67,7.45,7.6,15.92,11.47,27.46,11.47,12.25,0,21.39-5.37,28.48-13.52a.84.84,0,0,1,1.47.56V636.7a.85.85,0,0,0,.85.84l22.55-.06A.84.84,0,0,0,404.42,636.64Zm-47.65-44.19a19.83,19.83,0,0,1-15.51-6.57c-5.75-5.91-8.9-15.5-8.9-27.06,0-11,3.45-20.89,9.48-27.06,4.4-4.49,8.62-6.72,14.93-6.72,14.13,0,21.56,9.23,23.74,26,.3,2.55.45,11.83.3,13.56-1.57,18-9.11,27.87-24,27.87"/></g></g><g id="g44"><path id="path46" class="cls-1" d="M.84,609.89H25.43a.83.83,0,0,0,.84-.84V550.21a.85.85,0,0,1,.84-.84H80.52a.85.85,0,0,1,.84.84v58.84a.84.84,0,0,0,.84.84h24.57a.83.83,0,0,0,.84-.84V474.66a.83.83,0,0,0-.84-.84H82.2a.84.84,0,0,0-.84.84v50.39a.84.84,0,0,1-.84.84H27.11a.84.84,0,0,1-.84-.84V474.66a.83.83,0,0,0-.84-.84H.84a.84.84,0,0,0-.84.84V609.05A.84.84,0,0,0,.84,609.89Z"/></g><g id="g50"><g id="g56"><path id="path58" class="cls-1" d="M261.08,592.91c-10.08.26-18-4.07-19.81-12.8a.84.84,0,0,0-.82-.67H217.63a.84.84,0,0,0-.83.91c1.71,25,26.66,32.61,44,32.24,17.52-.38,25.48-4.61,33.34-12.61,5.47-5.62,8.23-12.72,8.23-21.1,0-19.89-14.76-26.4-31.56-30.51l-5.3-1.23c-13.06-2.61-23.82-5.28-23.2-13s8.8-9.39,15.24-9.58c6.27-.21,11.56.82,15.37,8.22a.83.83,0,0,0,.75.47h23.63a.86.86,0,0,0,.84-1c-3-19.08-20.45-27.34-39-27.06s-40.63,7.79-40.63,29.73c0,20.68,14,27,30.83,30.68,2.27.51,4.56,1,6.78,1.49,12.58,2.71,22,5.27,22.22,13.73s-6.82,11.82-17.18,12.08"/></g></g><g id="g60"><path id="path62" class="cls-1" d="M502.82,507.91H479.54a.85.85,0,0,0-.82.62l-20.47,74.91a.84.84,0,0,1-1.62,0L435.4,508.52a.84.84,0,0,0-.81-.61H410.22a.84.84,0,0,0-.8,1.11l34.11,100.31a.83.83,0,0,0,.79.57H469a.84.84,0,0,0,.8-.58L503.61,509A.84.84,0,0,0,502.82,507.91Z"/></g><g id="g66"><g id="g72"><path id="path74" class="cls-1" d="M641.94,504.59c-7,1.05-15.08,8.31-19.65,17.48a.84.84,0,0,1-1.6-.37v-13a.83.83,0,0,0-.84-.84H598.66a.83.83,0,0,0-.84.84V609.06a.84.84,0,0,0,.84.84h22.59a.85.85,0,0,0,.84-.84V561.2c0-11.08.67-19.43,5.69-26,3.78-5,10.44-9.87,17.11-9.67a41.1,41.1,0,0,1,9.41,1.25.84.84,0,0,0,1.06-.81V505.75a.85.85,0,0,0-.68-.83,39.28,39.28,0,0,0-12.74-.33"/></g><g id="g76"><path id="path78" class="cls-1" d="M750.09,540.18c0-10.68-3-19.2-9-25.29-6.19-6.34-15-9.7-26.36-9.7-11,0-19.47,5.55-26.39,15.64a.84.84,0,0,1-1.54-.47V508.75a.84.84,0,0,0-.84-.84H664.83a.84.84,0,0,0-.84.84V609.06a.84.84,0,0,0,.84.84h22.42a.85.85,0,0,0,.84-.84V549.74c0-7.34,1.52-14.16,6-18.74,4-4.06,9.71-6.34,16.6-6.22,11.13.22,14.89,6.76,15.33,21.32v63a.85.85,0,0,0,.84.84h22.38a.85.85,0,0,0,.84-.84Z"/></g><g id="g80"><path id="path82" class="cls-1" d="M844.69,535.45c0-7.63-2.49-14-7.41-19-6.94-7.1-18.46-11.23-32.75-11.16s-37.94,3-41.18,29.88a.84.84,0,0,0,.83,1h22.44a.86.86,0,0,0,.84-.83c.35-11.84,15.23-11,15.81-11h0c5.15,0,11.46,1.66,14.87,4.46,2.13,1.71,3.5,4.35,3.68,8.63.26,6.92-3,10.23-25.67,12.5-17.51,1.7-38.37,6.56-38.37,32.25,0,8.17,2.74,15.31,7.9,20.58,6.27,6.42,15.74,9.93,26.63,9.93,13.67,0,21.89-3.3,29-10.82a.84.84,0,0,1,1.44.48l.86,6.89a.85.85,0,0,0,.84.74h21.69a.85.85,0,0,0,.84-.84v-2.6a.83.83,0,0,0-.25-.59c-2.64-2.68-2.11-11.76-2.08-12.29V535.45ZM781.85,581.3c-.61-7.67,3.75-13.14,15.17-15.17,3-.6,6.08-.88,9.07-1.34a36.56,36.56,0,0,0,13.25-4.33.85.85,0,0,1,1.27.73v14.08c0,12.63-12.34,17.37-21.31,17.21S782.53,589,781.85,581.3"/></g></g></g></g></svg>