<?xml version="1.0" encoding="utf-8"?>
<!-- Generator: Adobe Illustrator 15.0.0, SVG Export Plug-In . SVG Version: 6.00 Build 0)  -->
<!DOCTYPE svg PUBLIC "-//W3C//DTD SVG 1.1//EN" "http://www.w3.org/Graphics/SVG/1.1/DTD/svg11.dtd">
<svg version="1.1" id="Слой_1" xmlns="http://www.w3.org/2000/svg" xmlns:xlink="http://www.w3.org/1999/xlink" x="0px" y="0px"
	 width="612px" height="792px" viewBox="0 0 612 792" enable-background="new 0 0 612 792" xml:space="preserve">
<polygon fill-rule="evenodd" clip-rule="evenodd" fill="#C60000" points="225.287,400.15 217.504,400.15 217.504,372.917 
	225.287,372.917 225.287,383.438 235.659,372.917 245.541,372.917 235.198,383.066 245.466,400.15 236.611,400.15 229.587,388.052 
	225.287,392.219 225.287,400.15 225.287,400.15 "/>
<path fill-rule="evenodd" clip-rule="evenodd" fill="#C60000" d="M246.255,387.337c0.773-4.777,4.926-5.878,9.241-5.878
	c7.857,0,10.03,2.932,10.03,7.515l0,0v6.488l0,0c0,1.979,0.268,3.616,1.265,4.688l0,0h-7.411l0,0
	c-0.372-0.609-0.446-1.443-0.536-2.516l0,0h-0.074l0,0c-1.518,2.441-4.569,3.275-6.295,3.275c-2.396,0-6.905-0.908-6.905-5.596
	c0-4.018,2.366-5.923,8.467-5.923c3.363,0,4.777-0.908,4.777-2.128c0-1.682-1.265-2.217-2.708-2.217
	c-1.533,0-2.753,0.61-2.828,2.292l0,0H246.255L246.255,387.337L246.255,387.337L246.255,387.337z M258.77,390.805
	c-1.563,1.637-6.027,1.026-6.027,4.047c0,1.413,1.221,2.247,2.441,2.247c1.83,0,3.289-1.265,3.363-2.56l0,0L258.77,390.805
	L258.77,390.805L258.77,390.805z"/>
<polygon fill-rule="evenodd" clip-rule="evenodd" fill="#C60000" points="290.928,393.439 291.002,393.439 293.294,382.218 
	300.318,382.218 294.901,400.15 287.029,400.15 283.607,388.974 283.681,388.9 283.681,389.019 283.607,389.019 280.244,400.15 
	272.386,400.15 266.969,382.218 273.993,382.218 276.285,393.439 276.359,393.439 279.901,382.218 287.387,382.218 290.928,393.439 
	290.928,393.439 "/>
<path fill-rule="evenodd" clip-rule="evenodd" fill="#C60000" d="M300.348,387.337c0.759-4.777,4.926-5.878,9.211-5.878
	c7.872,0,10.045,2.932,10.045,7.515l0,0v6.488l0,0c0,1.979,0.268,3.616,1.25,4.688l0,0h-7.396l0,0
	c-0.388-0.609-0.462-1.443-0.536-2.516l0,0h-0.074l0,0c-1.533,2.441-4.568,3.275-6.28,3.275c-2.411,0-6.905-0.908-6.905-5.596
	c0-4.018,2.366-5.923,8.467-5.923c3.349,0,4.762-0.908,4.762-2.128c0-1.682-1.265-2.217-2.723-2.217
	c-1.503,0-2.724,0.61-2.798,2.292l0,0H300.348L300.348,387.337L300.348,387.337L300.348,387.337z M312.849,390.805
	c-1.563,1.637-6.012,1.026-6.012,4.047c0,1.413,1.22,2.247,2.425,2.247c1.831,0,3.274-1.265,3.363-2.56l0,0L312.849,390.805
	L312.849,390.805L312.849,390.805z"/>
<path fill-rule="evenodd" clip-rule="evenodd" fill="#C60000" d="M327.879,395.225c0.104,0.774,0.372,1.383,0.788,1.801
	c0.462,0.387,1.116,0.609,1.949,0.609c1.638,0,2.754-0.684,2.754-2.143c0-3.542-11.979,0-11.979-7.321
	c0-4.807,4.196-6.711,9.985-6.711c3.973,0,8.244,1.22,8.482,5.878l0,0h-6.801l0,0c0.074-0.848-0.104-1.458-0.536-1.875
	c-0.417-0.461-1.026-0.685-1.86-0.729c-0.997,0-2.485,0.387-2.485,1.756c0,3.854,12.099,0.268,12.099,8.021
	c0,5.105-5.61,6.4-9.955,6.4c-3.631,0-9.241-1.102-9.241-5.686l0,0H327.879L327.879,395.225L327.879,395.225z"/>
<path fill-rule="evenodd" clip-rule="evenodd" fill="#C60000" d="M341.718,387.337c0.759-4.777,4.926-5.878,9.227-5.878
	c7.872,0,10.045,2.932,10.045,7.515l0,0v6.488l0,0c0,1.979,0.269,3.616,1.25,4.688l0,0h-7.396l0,0
	c-0.388-0.609-0.462-1.443-0.536-2.516l0,0h-0.074l0,0c-1.533,2.441-4.584,3.275-6.295,3.275c-2.411,0-6.905-0.908-6.905-5.596
	c0-4.018,2.366-5.923,8.468-5.923c3.363,0,4.777-0.908,4.777-2.128c0-1.682-1.266-2.217-2.709-2.217
	c-1.532,0-2.753,0.61-2.827,2.292l0,0H341.718L341.718,387.337L341.718,387.337L341.718,387.337z M354.233,390.805
	c-1.563,1.637-6.027,1.026-6.027,4.047c0,1.413,1.221,2.247,2.441,2.247c1.83,0,3.273-1.265,3.362-2.56l0,0L354.233,390.805
	L354.233,390.805L354.233,390.805z"/>
<polygon fill-rule="evenodd" clip-rule="evenodd" fill="#C60000" points="363.534,400.15 363.534,372.917 370.855,372.917 
	370.855,387.486 375.588,382.218 384.368,382.218 378.222,388.483 385.008,400.15 376.778,400.15 373.117,393.126 370.826,395.343 
	370.826,400.15 363.534,400.15 363.534,400.15 "/>
<path fill-rule="evenodd" clip-rule="evenodd" fill="#C60000" d="M385.931,382.218h7.321v17.932h-7.321V382.218L385.931,382.218
	L385.931,382.218L385.931,382.218L385.931,382.218z M385.931,379.48v-6.563h7.321v6.563H385.931L385.931,379.48L385.931,379.48z"/>
</svg>
