<svg xmlns="http://www.w3.org/2000/svg" viewBox="0 0 929 147.98"><defs><style>.cls-1{fill:#c60000;fill-rule:evenodd;}</style></defs><g id="Layer_2" data-name="Layer 2"><g id="Слой_1" data-name="Слой 1"><polygon class="cls-1" points="41.14 143.95 0 143.95 0 0 41.14 0 41.14 55.61 95.97 0 148.2 0 93.53 53.65 147.81 143.95 101 143.95 63.87 80 41.14 102.03 41.14 143.95 41.14 143.95"/><path class="cls-1" d="M152,76.22c4.08-25.25,26-31.07,48.84-31.07,41.54,0,53,15.5,53,39.73h0v34.29h0c0,10.46,1.42,19.12,6.69,24.78H221.36c-2-3.22-2.36-7.62-2.84-13.3h-.39C210.11,143.56,194,148,184.86,148c-12.67,0-36.5-4.8-36.5-29.59,0-21.23,12.5-31.3,44.75-31.3,17.78,0,25.25-4.8,25.25-11.25,0-8.89-6.68-11.72-14.31-11.72-8.1,0-14.55,3.22-15,12.11H152Zm66.15,18.34c-8.26,8.65-31.86,5.42-31.86,21.39,0,7.47,6.46,11.88,12.91,11.88,9.67,0,17.38-6.69,17.77-13.54h0l1.18-19.73Z"/><polygon class="cls-1" points="388.12 108.48 388.51 108.48 400.62 49.16 437.75 49.16 409.12 143.95 367.51 143.95 349.42 84.88 349.81 84.49 349.81 85.11 349.42 85.11 331.64 143.95 290.11 143.95 261.47 49.16 298.6 49.16 310.71 108.48 311.11 108.48 329.83 49.16 369.4 49.16 388.12 108.48 388.12 108.48"/><path class="cls-1" d="M437.91,76.22c4-25.25,26-31.07,48.69-31.07,41.61,0,53.1,15.5,53.1,39.73h0v34.29h0c0,10.46,1.41,19.12,6.61,24.78h-39.1c-2-3.22-2.44-7.62-2.83-13.3H504c-8.11,12.91-24.15,17.32-33.2,17.32-12.74,0-36.5-4.8-36.5-29.59,0-21.23,12.51-31.3,44.76-31.3,17.7,0,25.17-4.8,25.17-11.25,0-8.89-6.69-11.72-14.39-11.72-7.95,0-14.4,3.22-14.8,12.11H437.91ZM504,94.56c-8.26,8.65-31.78,5.42-31.78,21.39,0,7.47,6.45,11.88,12.82,11.88,9.68,0,17.31-6.69,17.78-13.54h0L504,94.56Z"/><path class="cls-1" d="M583.44,117.92c.55,4.09,2,7.31,4.17,9.52,2.44,2.05,5.89,3.22,10.3,3.22,8.66,0,14.56-3.62,14.56-11.33,0-18.72-63.33,0-63.33-38.7,0-25.41,22.18-35.47,52.78-35.47,21,0,43.58,6.45,44.84,31.07h-36c.39-4.48-.55-7.71-2.83-9.91-2.21-2.44-5.43-3.62-9.83-3.86-5.27,0-13.14,2.05-13.14,9.29,0,20.37,64,1.41,64,42.4,0,27-29.65,33.83-52.62,33.83-19.19,0-48.84-5.83-48.84-30.06h35.94Z"/><path class="cls-1" d="M656.59,76.22c4-25.25,26-31.07,48.78-31.07,41.61,0,53.09,15.5,53.09,39.73h0v34.29h0c0,10.46,1.43,19.12,6.61,24.78H726c-2.05-3.22-2.45-7.62-2.84-13.3h-.39c-8.1,12.91-24.23,17.32-33.27,17.32-12.75,0-36.5-4.8-36.5-29.59,0-21.23,12.5-31.3,44.76-31.3,17.77,0,25.25-4.8,25.25-11.25,0-8.89-6.69-11.72-14.32-11.72-8.1,0-14.55,3.22-14.94,12.11H656.59Zm66.16,18.34c-8.27,8.65-31.86,5.42-31.86,21.39,0,7.47,6.45,11.88,12.9,11.88,9.67,0,17.3-6.69,17.77-13.54h0l1.19-19.73Z"/><polygon class="cls-1" points="771.91 143.95 771.91 0 810.61 0 810.61 77.01 835.63 49.16 882.04 49.16 849.55 82.28 885.42 143.95 841.92 143.95 822.57 106.82 810.46 118.54 810.46 143.95 771.91 143.95 771.91 143.95"/><path class="cls-1" d="M890.3,49.16H929V144H890.3V49.16Zm0-14.47V0H929V34.69Z"/></g></g></svg>